<?xml version="1.0" encoding="UTF-8" standalone="no"?>
<!-- Created with Inkscape (http://www.inkscape.org/) -->

<svg
   xmlns:dc="http://purl.org/dc/elements/1.1/"
   xmlns:cc="http://creativecommons.org/ns#"
   xmlns:rdf="http://www.w3.org/1999/02/22-rdf-syntax-ns#"
   xmlns:svg="http://www.w3.org/2000/svg"
   xmlns="http://www.w3.org/2000/svg"
   xmlns:sodipodi="http://sodipodi.sourceforge.net/DTD/sodipodi-0.dtd"
   xmlns:inkscape="http://www.inkscape.org/namespaces/inkscape"
   width="178.28989mm"
   height="75.427528mm"
   viewBox="0 0 178.28989 75.427528"
   version="1.1"
   id="svg2084"
   inkscape:version="0.92.4 (5da689c313, 2019-01-14)"
   sodipodi:docname="lswt.svg">
  <defs
     id="defs2078" />
  <sodipodi:namedview
     id="base"
     pagecolor="#ffffff"
     bordercolor="#666666"
     borderopacity="1.0"
     inkscape:pageopacity="0.0"
     inkscape:pageshadow="2"
     inkscape:zoom="0.35"
     inkscape:cx="-775.93138"
     inkscape:cy="1228.2545"
     inkscape:document-units="mm"
     inkscape:current-layer="layer1"
     showgrid="false"
     inkscape:window-width="2560"
     inkscape:window-height="1384"
     inkscape:window-x="1920"
     inkscape:window-y="28"
     inkscape:window-maximized="1" />
  <metadata
     id="metadata2081">
    <rdf:RDF>
      <cc:Work
         rdf:about="">
        <dc:format>image/svg+xml</dc:format>
        <dc:type
           rdf:resource="http://purl.org/dc/dcmitype/StillImage" />
        <dc:title></dc:title>
      </cc:Work>
    </rdf:RDF>
  </metadata>
  <g
     inkscape:label="Ebene 1"
     inkscape:groupmode="layer"
     id="layer1"
     transform="translate(-88.503869,-398.38147)">
    <path
       style="color:#000000;display:inline;overflow:visible;visibility:visible;opacity:1;fill:#b72c37;fill-opacity:1;fill-rule:evenodd;stroke:none;stroke-width:0.84507895;stroke-linecap:round;stroke-linejoin:miter;stroke-miterlimit:4;stroke-dasharray:none;stroke-dashoffset:0;stroke-opacity:1;marker:none;enable-background:accumulate"
       d="m 174.05961,399.36056 2.55996,-0.97909 c 3.73066,4.54654 7.25295,10.15308 14.30899,10.11722 v 42.55734 h -16.86895 z"
       id="rect7981-6-6-7-6-5"
       inkscape:connector-curvature="0"
       sodipodi:nodetypes="cccccc" />
    <g
       transform="translate(7.55379,337.56093)"
       aria-label="LSWT 2021"
       style="font-style:normal;font-variant:normal;font-weight:normal;font-stretch:normal;font-size:39.94425201px;line-height:1.25;font-family:Impact;-inkscape-font-specification:Impact;text-align:start;letter-spacing:0px;word-spacing:0px;text-anchor:start;display:inline;fill:#000000;fill-opacity:1;stroke:none;stroke-width:0.20804298"
       id="text2040">
      <path
         inkscape:connector-curvature="0"
         d="m 94.799715,86.618548 v 25.257722 h 4.993031 v 6.3193 H 86.588519 V 86.618548 Z"
         style="font-style:normal;font-variant:normal;font-weight:normal;font-stretch:normal;font-size:39.94425201px;font-family:Impact;-inkscape-font-specification:Impact;stroke-width:0.20804298"
         id="path2095" />
      <path
         inkscape:connector-curvature="0"
         d="m 118.9067,96.175523 h -7.62608 v -2.340484 q 0,-1.638338 -0.29256,-2.086931 -0.29256,-0.448593 -0.9752,-0.448593 -0.74116,0 -1.13124,0.604625 -0.37057,0.604625 -0.37057,1.833379 0,1.579827 0.42909,2.379492 0.40958,0.799665 2.32098,1.930899 5.48063,3.25717 6.90442,5.3441 1.4238,2.08693 1.4238,6.72889 0,3.3742 -0.79967,4.97353 -0.78016,1.59933 -3.04263,2.69156 -2.26246,1.07272 -5.26609,1.07272 -3.29618,0 -5.63666,-1.24826 -2.32098,-1.24826 -3.04263,-3.17916 -0.72165,-1.93089 -0.72165,-5.48063 v -2.06743 h 7.62608 v 3.8423 q 0,1.77487 0.31206,2.28197 0.33157,0.5071 1.15074,0.5071 0.81917,0 1.20925,-0.64363 0.40958,-0.64363 0.40958,-1.91139 0,-2.78908 -0.76065,-3.64726 -0.78016,-0.85817 -3.8423,-2.86709 -3.06213,-2.02842 -4.05683,-2.94511 -0.99471,-0.91669 -1.65785,-2.535521 -0.64363,-1.618834 -0.64363,-4.134854 0,-3.62775 0.91669,-5.305096 0.93619,-1.677347 3.00362,-2.61354 2.06743,-0.955698 4.99303,-0.955698 3.19866,0 5.44163,1.033714 2.26246,1.033714 2.98411,2.61354 0.74116,1.560322 0.74116,5.3246 z"
         style="font-style:normal;font-variant:normal;font-weight:normal;font-stretch:normal;font-size:39.94425201px;font-family:Impact;-inkscape-font-specification:Impact;stroke-width:0.20804298"
         id="path2097" />
      <path
         inkscape:connector-curvature="0"
         d="M 153.05825,86.618548 149.411,118.19557 h -10.25912 q -1.40429,-7.275 -2.47702,-16.53941 -0.4876,3.95931 -2.28197,16.53941 h -10.2006 l -3.66676,-31.577022 h 7.97715 l 0.83867,11.019777 0.85818,10.629695 q 0.44859,-8.2502 2.26246,-21.649472 h 8.54277 q 0.17553,1.384787 0.89718,10.415152 l 0.89719,11.99498 q 0.68264,-11.448867 2.28197,-22.410132 z"
         style="font-style:normal;font-variant:normal;font-weight:normal;font-stretch:normal;font-size:39.94425201px;font-family:Impact;-inkscape-font-specification:Impact;stroke-width:0.20804298"
         id="path2099" />
      <path
         inkscape:connector-curvature="0"
         d="m 171.23601,86.618548 v 6.319306 H 166.36 v 25.257716 h -8.2112 V 92.937854 h -4.8565 v -6.319306 z"
         style="font-style:normal;font-variant:normal;font-weight:normal;font-stretch:normal;font-size:39.94425201px;font-family:Impact;-inkscape-font-specification:Impact;stroke-width:0.20804298"
         id="path2101" />
      <path
         inkscape:connector-curvature="0"
         d="m 196.88381,112.81246 v 5.38311 h -17.33908 v -4.50543 q 7.70409,-12.5996 9.14739,-15.583718 1.4628,-3.003621 1.4628,-4.680967 0,-1.287266 -0.44859,-1.911395 -0.42909,-0.643633 -1.32628,-0.643633 -0.89718,0 -1.34578,0.702145 -0.42909,0.702145 -0.42909,2.789076 v 3.003621 h -7.06045 v -1.150738 q 0,-2.652548 0.27305,-4.173862 0.27306,-1.540819 1.34578,-3.023125 1.07272,-1.482306 2.78908,-2.242963 1.71635,-0.760657 4.11535,-0.760657 4.70047,0 7.09946,2.340483 2.4185,2.32098 2.4185,5.890217 0,2.71106 -1.36528,5.734185 -1.34578,3.023121 -7.97715,12.833651 z"
         style="font-style:normal;font-variant:normal;font-weight:normal;font-stretch:normal;font-size:39.94425201px;font-family:Impact;-inkscape-font-specification:Impact;stroke-width:0.20804298"
         id="path2103" />
      <path
         inkscape:connector-curvature="0"
         d="m 218.53328,97.306757 v 10.532173 q 0,3.58874 -0.39008,5.22708 -0.39008,1.63834 -1.61884,3.06213 -1.22875,1.4238 -2.96461,2.04793 -1.73586,0.62413 -3.8813,0.62413 -2.82808,0 -4.70047,-0.64364 -1.87239,-0.66313 -2.98412,-2.04792 -1.11173,-1.38479 -1.57982,-2.9061 -0.4681,-1.54082 -0.4681,-4.87601 V 97.306757 q 0,-4.349399 0.74115,-6.514346 0.76066,-2.164948 2.98412,-3.471717 2.24296,-1.30677 5.42212,-1.30677 2.59403,0 4.64196,0.916689 2.04792,0.897185 3.06213,2.203955 1.01421,1.30677 1.36528,2.945109 0.37058,1.638338 0.37058,5.22708 z m -7.87963,-2.652548 q 0,-2.51602 -0.25355,-3.140149 -0.23405,-0.643633 -1.13124,-0.643633 -0.87768,0 -1.17024,0.682641 -0.27305,0.663137 -0.27305,3.101141 v 15.408181 q 0,2.75007 0.25355,3.31569 0.27306,0.56561 1.15074,0.56561 0.87768,0 1.15073,-0.66313 0.27306,-0.66314 0.27306,-2.98412 z"
         style="font-style:normal;font-variant:normal;font-weight:normal;font-stretch:normal;font-size:39.94425201px;font-family:Impact;-inkscape-font-specification:Impact;stroke-width:0.20804298"
         id="path2105" />
      <path
         inkscape:connector-curvature="0"
         d="m 238.38838,112.81246 v 5.38311 H 221.0493 v -4.50543 q 7.70409,-12.5996 9.14739,-15.583718 1.4628,-3.003621 1.4628,-4.680967 0,-1.287266 -0.44859,-1.911395 -0.42909,-0.643633 -1.32628,-0.643633 -0.89718,0 -1.34578,0.702145 -0.42909,0.702145 -0.42909,2.789076 v 3.003621 h -7.06045 v -1.150738 q 0,-2.652548 0.27305,-4.173862 0.27306,-1.540819 1.34578,-3.023125 1.07272,-1.482306 2.78908,-2.242963 1.71635,-0.760657 4.11535,-0.760657 4.70047,0 7.09946,2.340483 2.4185,2.32098 2.4185,5.890217 0,2.71106 -1.36528,5.734185 -1.34578,3.023121 -7.97715,12.833651 z"
         style="font-style:normal;font-variant:normal;font-weight:normal;font-stretch:normal;font-size:39.94425201px;font-family:Impact;-inkscape-font-specification:Impact;stroke-width:0.20804298"
         id="path2107" />
      <path
         inkscape:connector-curvature="0"
         d="m 253.60152,86.618548 v 31.577022 h -7.87963 v -16.9295 q 0,-3.666753 -0.17553,-4.407906 -0.17554,-0.741153 -0.97521,-1.11173 -0.78016,-0.39008 -3.51072,-0.39008 h -0.78016 v -3.686262 q 5.71468,-1.228754 8.67929,-5.051544 z"
         style="font-style:normal;font-variant:normal;font-weight:normal;font-stretch:normal;font-size:39.94425201px;font-family:Impact;-inkscape-font-specification:Impact;stroke-width:0.20804298"
         id="path2109" />
    </g>
    <g
       aria-label="7. Juli"
       transform="rotate(-90,172.55737,165.00357)"
       style="font-style:normal;font-variant:normal;font-weight:normal;font-stretch:normal;font-size:11.28888893px;line-height:1.25;font-family:Impact;-inkscape-font-specification:Impact;text-align:start;letter-spacing:0px;word-spacing:0px;text-anchor:start;display:inline;fill:#ffffff;fill-opacity:1;stroke:none;stroke-width:0.26458332"
       id="text2089">
      <path
         inkscape:connector-curvature="0"
         d="m -100.63038,170.64898 v 1.94579 l -1.42214,6.97838 h -2.21588 l 1.58198,-7.32014 h -2.19935 v -1.60403 z"
         style="font-style:normal;font-variant:normal;font-weight:normal;font-stretch:normal;font-size:11.28888893px;font-family:Impact;-inkscape-font-specification:Impact;fill:#ffffff;fill-opacity:1;stroke-width:0.26458332"
         id="path2165" />
      <path
         inkscape:connector-curvature="0"
         d="m -98.640497,177.75414 v 1.81901 h -1.681203 v -1.81901 z"
         style="font-style:normal;font-variant:normal;font-weight:normal;font-stretch:normal;font-size:11.28888893px;font-family:Impact;-inkscape-font-specification:Impact;fill:#ffffff;fill-opacity:1;stroke-width:0.26458332"
         id="path2167" />
      <path
         inkscape:connector-curvature="0"
         d="m -93.139368,170.64898 v 5.96414 q 0,1.33946 -0.02756,1.72531 -0.02756,0.38034 -0.253559,0.68902 -0.220486,0.30868 -0.606337,0.42995 -0.380338,0.11575 -1.15204,0.11575 h -1.163064 v -1.55994 q 0.209462,0.0165 0.303168,0.0165 0.248047,0 0.391363,-0.12127 0.143316,-0.12127 0.165365,-0.29766 0.02205,-0.17638 0.02205,-0.6835 v -6.27834 z"
         style="font-style:normal;font-variant:normal;font-weight:normal;font-stretch:normal;font-size:11.28888893px;font-family:Impact;-inkscape-font-specification:Impact;fill:#ffffff;fill-opacity:1;stroke-width:0.26458332"
         id="path2169" />
      <path
         inkscape:connector-curvature="0"
         d="m -87.197268,172.25852 v 7.31463 h -2.265495 l 0.03858,-0.60634 q -0.23151,0.36932 -0.573264,0.55673 -0.336241,0.1819 -0.777213,0.1819 -0.501606,0 -0.832335,-0.17639 -0.33073,-0.17639 -0.490582,-0.46853 -0.15434,-0.29214 -0.192925,-0.60634 -0.03858,-0.3197 -0.03858,-1.26228 v -4.93338 h 2.226909 v 4.97748 q 0,0.85438 0.04961,1.01423 0.05512,0.15986 0.286632,0.15986 0.248047,0 0.292144,-0.16537 0.04961,-0.16536 0.04961,-1.06384 v -4.92236 z"
         style="font-style:normal;font-variant:normal;font-weight:normal;font-stretch:normal;font-size:11.28888893px;font-family:Impact;-inkscape-font-specification:Impact;fill:#ffffff;fill-opacity:1;stroke-width:0.26458332"
         id="path2171" />
      <path
         inkscape:connector-curvature="0"
         d="m -84.093927,170.64898 v 8.92417 h -2.293055 v -8.92417 z"
         style="font-style:normal;font-variant:normal;font-weight:normal;font-stretch:normal;font-size:11.28888893px;font-family:Impact;-inkscape-font-specification:Impact;fill:#ffffff;fill-opacity:1;stroke-width:0.26458332"
         id="path2173" />
      <path
         inkscape:connector-curvature="0"
         d="m -81.007121,170.64898 v 1.16306 h -2.293056 v -1.16306 z m 0,1.60954 v 7.31463 h -2.293056 v -7.31463 z"
         style="font-style:normal;font-variant:normal;font-weight:normal;font-stretch:normal;font-size:11.28888893px;font-family:Impact;-inkscape-font-specification:Impact;fill:#ffffff;fill-opacity:1;stroke-width:0.26458332"
         id="path2175" />
    </g>
    <g
       transform="translate(6.6705,337.56093)"
       aria-label="9. Leipziger Semantic Web Tag"
       style="font-style:normal;font-variant:normal;font-weight:normal;font-stretch:normal;font-size:12.69999981px;line-height:1.25;font-family:'Open Sans';-inkscape-font-specification:'Open Sans';text-align:start;letter-spacing:0px;word-spacing:0px;text-anchor:start;display:inline;fill:#000000;fill-opacity:1;stroke:none;stroke-width:0.26458332"
       id="text2093">
      <path
         inkscape:connector-curvature="0"
         d="m 87.755484,128.0005 q 0,5.32061 -4.117578,5.32061 -0.719336,0 -1.141016,-0.12403 v -0.88677 q 0.496094,0.16124 1.128614,0.16124 1.488281,0 2.244824,-0.91778 0.762744,-0.92397 0.830957,-2.82773 h -0.07441 q -0.341065,0.51469 -0.905371,0.78755 -0.564307,0.26665 -1.271241,0.26665 -1.203027,0 -1.909961,-0.71934 -0.706933,-0.71933 -0.706933,-2.00918 0,-1.41387 0.787549,-2.23242 0.79375,-0.81856 2.083593,-0.81856 0.923975,0 1.612305,0.47749 0.694531,0.47129 1.066602,1.38287 0.37207,0.90537 0.37207,2.1394 z m -3.050977,-3.11919 q -0.886767,0 -1.370459,0.57051 -0.483691,0.57051 -0.483691,1.5875 0,0.89297 0.446484,1.40766 0.446485,0.5085 1.358057,0.5085 0.564307,0 1.035596,-0.22944 0.47749,-0.22945 0.750341,-0.62632 0.272852,-0.39688 0.272852,-0.83096 0,-0.65112 -0.254248,-1.20303 -0.254248,-0.5519 -0.713135,-0.86816 -0.452685,-0.31626 -1.041797,-0.31626 z"
         style="font-size:12.69999981px;stroke-width:0.26458332"
         id="path2178" />
      <path
         inkscape:connector-curvature="0"
         d="m 89.386392,132.53976 q 0,-0.41548 0.186035,-0.62632 0.192236,-0.21704 0.545703,-0.21704 0.359668,0 0.558106,0.21704 0.204638,0.21084 0.204638,0.62632 0,0.40307 -0.204638,0.62012 -0.204639,0.21704 -0.558106,0.21704 -0.31626,0 -0.527099,-0.19224 -0.204639,-0.19844 -0.204639,-0.64492 z"
         style="font-size:12.69999981px;stroke-width:0.26458332"
         id="path2180" />
      <path
         inkscape:connector-curvature="0"
         d="m 96.36271,133.19708 v -9.06611 h 1.0542 v 8.11113 h 3.99976 v 0.95498 z"
         style="font-size:12.69999981px;stroke-width:0.26458332"
         id="path2182" />
      <path
         inkscape:connector-curvature="0"
         d="m 105.67687,133.32111 q -1.50688,0 -2.38125,-0.91778 -0.86816,-0.91777 -0.86816,-2.54868 0,-1.64331 0.80615,-2.61069 0.81235,-0.96739 2.17661,-0.96739 1.27744,0 2.02158,0.84336 0.74414,0.83716 0.74414,2.21382 v 0.65113 h -4.68188 q 0.031,1.19682 0.60151,1.81694 0.57671,0.62012 1.61851,0.62012 1.0976,0 2.17041,-0.45889 v 0.91777 q -0.54571,0.23565 -1.0356,0.33487 -0.48369,0.10542 -1.17202,0.10542 z m -0.27905,-6.18257 q -0.81856,0 -1.30845,0.5333 -0.48369,0.5333 -0.57051,1.47588 h 3.55327 q 0,-0.97359 -0.43408,-1.48828 -0.43408,-0.5209 -1.24023,-0.5209 z"
         style="font-size:12.69999981px;stroke-width:0.26458332"
         id="path2184" />
      <path
         inkscape:connector-curvature="0"
         d="m 110.95407,133.19708 h -1.0294 v -6.79648 h 1.0294 z m -1.11621,-8.63823 q 0,-0.35347 0.17363,-0.5147 0.17363,-0.16743 0.43408,-0.16743 0.24805,0 0.42788,0.16743 0.17984,0.16743 0.17984,0.5147 0,0.34727 -0.17984,0.5209 -0.17983,0.16743 -0.42788,0.16743 -0.26045,0 -0.43408,-0.16743 -0.17363,-0.17363 -0.17363,-0.5209 z"
         style="font-size:12.69999981px;stroke-width:0.26458332"
         id="path2186" />
      <path
         inkscape:connector-curvature="0"
         d="m 116.31188,133.32111 q -0.66352,0 -1.21543,-0.24185 -0.5457,-0.24805 -0.91777,-0.75654 h -0.0744 q 0.0744,0.59531 0.0744,1.12861 v 2.79673 h -1.0294 v -9.84746 h 0.83716 l 0.14263,0.93017 h 0.0496 q 0.39687,-0.5581 0.92397,-0.80615 0.5271,-0.24805 1.20923,-0.24805 1.35186,0 2.08359,0.92398 0.73794,0.92397 0.73794,2.59209 0,1.67432 -0.75034,2.60449 -0.74414,0.92398 -2.07119,0.92398 z m -0.14883,-6.17017 q -1.04179,0 -1.50688,0.57671 -0.46509,0.57671 -0.47749,1.83555 v 0.22944 q 0,1.43247 0.47749,2.05259 0.47749,0.61391 1.53169,0.61391 0.88056,0 1.37666,-0.71313 0.50229,-0.71314 0.50229,-1.96577 0,-1.27124 -0.50229,-1.94717 -0.4961,-0.68213 -1.40147,-0.68213 z"
         style="font-size:12.69999981px;stroke-width:0.26458332"
         id="path2188" />
      <path
         inkscape:connector-curvature="0"
         d="m 125.28497,133.19708 h -4.92993 v -0.70073 l 3.7083,-5.2958 h -3.47885 v -0.79995 h 4.60747 v 0.79995 l -3.6587,5.19658 h 3.75171 z"
         style="font-size:12.69999981px;stroke-width:0.26458332"
         id="path2190" />
      <path
         inkscape:connector-curvature="0"
         d="m 127.92047,133.19708 h -1.02939 v -6.79648 h 1.02939 z m -1.11621,-8.63823 q 0,-0.35347 0.17363,-0.5147 0.17364,-0.16743 0.43409,-0.16743 0.24804,0 0.42788,0.16743 0.17983,0.16743 0.17983,0.5147 0,0.34727 -0.17983,0.5209 -0.17984,0.16743 -0.42788,0.16743 -0.26045,0 -0.43409,-0.16743 -0.17363,-0.17363 -0.17363,-0.5209 z"
         style="font-size:12.69999981px;stroke-width:0.26458332"
         id="path2192" />
      <path
         inkscape:connector-curvature="0"
         d="m 135.67814,126.4006 v 0.65112 l -1.25884,0.14883 q 0.17363,0.21704 0.31006,0.57051 0.13642,0.34726 0.13642,0.78755 0,0.99838 -0.68212,1.5937 -0.68213,0.59531 -1.87276,0.59531 -0.30386,0 -0.57051,-0.0496 -0.65732,0.34727 -0.65732,0.87437 0,0.27905 0.22944,0.41547 0.22945,0.13023 0.78755,0.13023 h 1.20303 q 1.10381,0 1.69292,0.46509 0.59531,0.46508 0.59531,1.35185 0,1.12862 -0.90537,1.71773 -0.90537,0.59531 -2.6417,0.59531 -1.33325,0 -2.05879,-0.49609 -0.71933,-0.4961 -0.71933,-1.40147 0,-0.62012 0.39687,-1.0728 0.39688,-0.45269 1.11621,-0.61392 -0.26045,-0.11782 -0.44028,-0.36587 -0.17363,-0.24804 -0.17363,-0.57671 0,-0.37207 0.19843,-0.65112 0.19844,-0.27905 0.62632,-0.5395 -0.5271,-0.21704 -0.86196,-0.73794 -0.32866,-0.5209 -0.32866,-1.19063 0,-1.11621 0.66972,-1.71772 0.66973,-0.60772 1.89756,-0.60772 0.5333,0 0.96118,0.12403 z m -5.41983,7.9375 q 0,0.5519 0.46509,0.83716 0.46509,0.28525 1.33325,0.28525 1.29605,0 1.91617,-0.39067 0.62631,-0.38448 0.62631,-1.048 0,-0.55191 -0.34106,-0.76895 -0.34106,-0.21084 -1.28364,-0.21084 h -1.23404 q -0.70073,0 -1.0914,0.33487 -0.39068,0.33486 -0.39068,0.96118 z m 0.55811,-5.76089 q 0,0.71313 0.40308,1.079 0.40307,0.36587 1.12241,0.36587 1.50688,0 1.50688,-1.46347 0,-1.53169 -1.52549,-1.53169 -0.72553,0 -1.11621,0.39067 -0.39067,0.39067 -0.39067,1.15962 z"
         style="font-size:12.69999981px;stroke-width:0.26458332"
         id="path2194" />
      <path
         inkscape:connector-curvature="0"
         d="m 139.95695,133.32111 q -1.50689,0 -2.38125,-0.91778 -0.86817,-0.91777 -0.86817,-2.54868 0,-1.64331 0.80616,-2.61069 0.81235,-0.96739 2.17661,-0.96739 1.27744,0 2.02158,0.84336 0.74414,0.83716 0.74414,2.21382 v 0.65113 h -4.68188 q 0.031,1.19682 0.60151,1.81694 0.57671,0.62012 1.61851,0.62012 1.0976,0 2.17041,-0.45889 v 0.91777 q -0.54571,0.23565 -1.0356,0.33487 -0.48369,0.10542 -1.17202,0.10542 z m -0.27905,-6.18257 q -0.81856,0 -1.30845,0.5333 -0.48369,0.5333 -0.57051,1.47588 h 3.55327 q 0,-0.97359 -0.43408,-1.48828 -0.43408,-0.5209 -1.24023,-0.5209 z"
         style="font-size:12.69999981px;stroke-width:0.26458332"
         id="path2196" />
      <path
         inkscape:connector-curvature="0"
         d="m 147.30534,126.27657 q 0.45268,0 0.81235,0.0744 l -0.14263,0.95498 q -0.42167,-0.093 -0.74414,-0.093 -0.82475,0 -1.41386,0.66973 -0.58291,0.66972 -0.58291,1.66811 v 3.64629 h -1.0294 v -6.79648 h 0.84956 l 0.11783,1.25884 h 0.0496 q 0.37828,-0.66353 0.91158,-1.0232 0.5333,-0.35967 1.17202,-0.35967 z"
         style="font-size:12.69999981px;stroke-width:0.26458332"
         id="path2198" />
      <path
         inkscape:connector-curvature="0"
         d="m 157.95895,130.78483 q 0,1.19682 -0.86816,1.86655 -0.86817,0.66973 -2.35645,0.66973 -1.6123,0 -2.48047,-0.41548 v -1.01699 q 0.55811,0.23564 1.21543,0.37207 0.65733,0.13642 1.30225,0.13642 1.0542,0 1.5875,-0.39687 0.5333,-0.40308 0.5333,-1.11621 0,-0.47129 -0.19224,-0.76895 -0.18603,-0.30386 -0.63252,-0.55811 -0.44028,-0.25424 -1.34565,-0.5767 -1.26504,-0.45269 -1.81074,-1.07281 -0.5395,-0.62011 -0.5395,-1.6185 0,-1.048 0.78755,-1.66812 0.78754,-0.62012 2.08359,-0.62012 1.35185,0 2.48667,0.4961 l -0.32866,0.91777 q -1.12242,-0.47129 -2.18282,-0.47129 -0.83715,0 -1.30844,0.35967 -0.47129,0.35967 -0.47129,0.99839 0,0.47129 0.17363,0.77515 0.17363,0.29765 0.58291,0.5519 0.41548,0.24805 1.26504,0.5519 1.42627,0.5085 1.95957,1.09141 0.5395,0.58291 0.5395,1.51309 z"
         style="font-size:12.69999981px;stroke-width:0.26458332"
         id="path2200" />
      <path
         inkscape:connector-curvature="0"
         d="m 162.52921,133.32111 q -1.50688,0 -2.38125,-0.91778 -0.86816,-0.91777 -0.86816,-2.54868 0,-1.64331 0.80615,-2.61069 0.81236,-0.96739 2.17661,-0.96739 1.27745,0 2.02159,0.84336 0.74414,0.83716 0.74414,2.21382 v 0.65113 h -4.68189 q 0.031,1.19682 0.60152,1.81694 0.5767,0.62012 1.6185,0.62012 1.09761,0 2.17041,-0.45889 v 0.91777 q -0.5457,0.23565 -1.03559,0.33487 -0.4837,0.10542 -1.17203,0.10542 z m -0.27905,-6.18257 q -0.81855,0 -1.30845,0.5333 -0.48369,0.5333 -0.5705,1.47588 h 3.55327 q 0,-0.97359 -0.43408,-1.48828 -0.43409,-0.5209 -1.24024,-0.5209 z"
         style="font-size:12.69999981px;stroke-width:0.26458332"
         id="path2202" />
      <path
         inkscape:connector-curvature="0"
         d="m 175.44005,133.19708 v -4.42143 q 0,-0.81236 -0.34726,-1.21543 -0.34727,-0.40928 -1.07901,-0.40928 -0.96118,0 -1.42007,0.5519 -0.45888,0.55191 -0.45888,1.69913 v 3.79511 h -1.0294 v -4.42143 q 0,-0.81236 -0.34726,-1.21543 -0.34727,-0.40928 -1.08521,-0.40928 -0.96738,0 -1.42007,0.58291 -0.44648,0.57671 -0.44648,1.89756 v 3.56567 h -1.0294 v -6.79648 h 0.83716 l 0.16743,0.93017 h 0.0496 q 0.29146,-0.49609 0.81856,-0.77514 0.5333,-0.27906 1.19062,-0.27906 1.5937,0 2.0836,1.15342 h 0.0496 q 0.30385,-0.5333 0.88056,-0.84336 0.57671,-0.31006 1.31465,-0.31006 1.15342,0 1.72393,0.59532 0.57671,0.58911 0.57671,1.89135 v 4.43384 z"
         style="font-size:12.69999981px;stroke-width:0.26458332"
         id="path2204" />
      <path
         inkscape:connector-curvature="0"
         d="m 182.76363,133.19708 -0.20464,-0.96738 h -0.0496 q -0.5085,0.63872 -1.017,0.86816 -0.50229,0.22325 -1.25883,0.22325 -1.0108,0 -1.5875,-0.5209 -0.57051,-0.5209 -0.57051,-1.48208 0,-2.05879 3.29282,-2.15801 l 1.15342,-0.0372 v -0.42168 q 0,-0.79995 -0.34727,-1.17822 -0.34106,-0.38447 -1.09761,-0.38447 -0.84956,0 -1.92236,0.5209 l -0.31626,-0.78755 q 0.5023,-0.27285 1.09761,-0.42788 0.60151,-0.15503 1.20303,-0.15503 1.21543,0 1.79834,0.5395 0.58911,0.5395 0.58911,1.73013 v 4.63847 z m -2.32544,-0.72553 q 0.96119,0 1.50689,-0.5271 0.5519,-0.5271 0.5519,-1.47588 v -0.61392 l -1.02939,0.0434 q -1.22783,0.0434 -1.77354,0.38447 -0.5395,0.33487 -0.5395,1.048 0,0.55811 0.33486,0.84956 0.34107,0.29146 0.94878,0.29146 z"
         style="font-size:12.69999981px;stroke-width:0.26458332"
         id="path2206" />
      <path
         inkscape:connector-curvature="0"
         d="m 190.30426,133.19708 v -4.39663 q 0,-0.83096 -0.37827,-1.24023 -0.37827,-0.40928 -1.18443,-0.40928 -1.0666,0 -1.56269,0.57671 -0.4961,0.57671 -0.4961,1.90376 v 3.56567 h -1.02939 v -6.79648 h 0.83716 l 0.16743,0.93017 h 0.0496 q 0.31626,-0.50229 0.88677,-0.77514 0.5705,-0.27906 1.27124,-0.27906 1.22783,0 1.84795,0.59532 0.62011,0.58911 0.62011,1.89135 v 4.43384 z"
         style="font-size:12.69999981px;stroke-width:0.26458332"
         id="path2208" />
      <path
         inkscape:connector-curvature="0"
         d="m 195.63727,132.47155 q 0.27285,0 0.5271,-0.0372 0.25425,-0.0434 0.40307,-0.0868 v 0.78755 q -0.16743,0.0806 -0.49609,0.13023 -0.32246,0.0558 -0.58291,0.0558 -1.97197,0 -1.97197,-2.0774 v -4.04316 h -0.97359 v -0.49609 l 0.97359,-0.42789 0.43408,-1.45107 h 0.59531 v 1.5751 h 1.97197 v 0.79995 h -1.97197 v 3.99976 q 0,0.61391 0.29146,0.94257 0.29145,0.32867 0.79995,0.32867 z"
         style="font-size:12.69999981px;stroke-width:0.26458332"
         id="path2210" />
      <path
         inkscape:connector-curvature="0"
         d="m 198.96109,133.19708 h -1.02939 v -6.79648 h 1.02939 z m -1.11621,-8.63823 q 0,-0.35347 0.17364,-0.5147 0.17363,-0.16743 0.43408,-0.16743 0.24805,0 0.42788,0.16743 0.17983,0.16743 0.17983,0.5147 0,0.34727 -0.17983,0.5209 -0.17983,0.16743 -0.42788,0.16743 -0.26045,0 -0.43408,-0.16743 -0.17364,-0.17363 -0.17364,-0.5209 z"
         style="font-size:12.69999981px;stroke-width:0.26458332"
         id="path2212" />
      <path
         inkscape:connector-curvature="0"
         d="m 203.87242,133.32111 q -1.47588,0 -2.28823,-0.90538 -0.80615,-0.91157 -0.80615,-2.57348 0,-1.70532 0.81855,-2.6355 0.82476,-0.93018 2.34405,-0.93018 0.48989,0 0.97978,0.10542 0.48989,0.10542 0.76895,0.24805 l -0.31626,0.87437 q -0.34107,-0.13643 -0.74414,-0.22325 -0.40308,-0.093 -0.71314,-0.093 -2.07119,0 -2.07119,2.6417 0,1.25263 0.50229,1.92236 0.5085,0.66973 1.50069,0.66973 0.84956,0 1.74253,-0.36587 v 0.91157 q -0.68213,0.35347 -1.71773,0.35347 z"
         style="font-size:12.69999981px;stroke-width:0.26458332"
         id="path2214" />
      <path
         inkscape:connector-curvature="0"
         d="m 218.57541,133.19708 h -1.0418 l -1.82935,-6.07094 q -0.13022,-0.40308 -0.29145,-1.017 -0.16123,-0.61391 -0.16743,-0.73794 -0.13643,0.81856 -0.43409,1.79214 l -1.77353,6.03374 h -1.0418 l -2.41225,-9.06611 h 1.11621 l 1.43247,5.59966 q 0.29765,1.17822 0.43408,2.1332 0.16743,-1.13481 0.49609,-2.22002 l 1.62471,-5.51284 h 1.11621 l 1.70532,5.56245 q 0.29766,0.96118 0.5023,2.17041 0.11782,-0.88057 0.44648,-2.1456 l 1.42627,-5.58726 h 1.11621 z"
         style="font-size:12.69999981px;stroke-width:0.26458332"
         id="path2216" />
      <path
         inkscape:connector-curvature="0"
         d="m 225.13624,133.32111 q -1.50689,0 -2.38125,-0.91778 -0.86816,-0.91777 -0.86816,-2.54868 0,-1.64331 0.80615,-2.61069 0.81235,-0.96739 2.17661,-0.96739 1.27744,0 2.02158,0.84336 0.74414,0.83716 0.74414,2.21382 v 0.65113 h -4.68188 q 0.031,1.19682 0.60151,1.81694 0.57671,0.62012 1.61851,0.62012 1.0976,0 2.17041,-0.45889 v 0.91777 q -0.54571,0.23565 -1.0356,0.33487 -0.48369,0.10542 -1.17202,0.10542 z m -0.27905,-6.18257 q -0.81856,0 -1.30845,0.5333 -0.48369,0.5333 -0.57051,1.47588 h 3.55327 q 0,-0.97359 -0.43408,-1.48828 -0.43408,-0.5209 -1.24023,-0.5209 z"
         style="font-size:12.69999981px;stroke-width:0.26458332"
         id="path2218" />
      <path
         inkscape:connector-curvature="0"
         d="m 232.54664,126.28898 q 1.33945,0 2.07739,0.91777 0.74414,0.91157 0.74414,2.58589 0,1.67432 -0.75034,2.60449 -0.74414,0.92398 -2.07119,0.92398 -0.66353,0 -1.21543,-0.24185 -0.54571,-0.24805 -0.91778,-0.75654 h -0.0744 l -0.21704,0.87436 h -0.73794 v -9.64902 h 1.02939 v 2.34404 q 0,0.78755 -0.0496,1.41387 h 0.0496 q 0.71934,-1.01699 2.13321,-1.01699 z m -0.14883,0.86196 q -1.0542,0 -1.51929,0.60771 -0.46509,0.60152 -0.46509,2.03399 0,1.43247 0.47749,2.05259 0.47749,0.61391 1.53169,0.61391 0.94878,0 1.41387,-0.68833 0.46509,-0.69453 0.46509,-1.99057 0,-1.32705 -0.46509,-1.97818 -0.46509,-0.65112 -1.43867,-0.65112 z"
         style="font-size:12.69999981px;stroke-width:0.26458332"
         id="path2220" />
      <path
         inkscape:connector-curvature="0"
         d="m 243.4173,133.19708 h -1.0542 v -8.12973 h -2.87114 v -0.93638 h 6.79649 v 0.93638 h -2.87115 z"
         style="font-size:12.69999981px;stroke-width:0.26458332"
         id="path2222" />
      <path
         inkscape:connector-curvature="0"
         d="m 251.67105,133.19708 -0.20464,-0.96738 h -0.0496 q -0.50849,0.63872 -1.01699,0.86816 -0.50229,0.22325 -1.25884,0.22325 -1.01079,0 -1.5875,-0.5209 -0.5705,-0.5209 -0.5705,-1.48208 0,-2.05879 3.29282,-2.15801 l 1.15342,-0.0372 v -0.42168 q 0,-0.79995 -0.34727,-1.17822 -0.34106,-0.38447 -1.09761,-0.38447 -0.84956,0 -1.92236,0.5209 l -0.31626,-0.78755 q 0.50229,-0.27285 1.09761,-0.42788 0.60151,-0.15503 1.20302,-0.15503 1.21543,0 1.79834,0.5395 0.58912,0.5395 0.58912,1.73013 v 4.63847 z m -2.32544,-0.72553 q 0.96118,0 1.50689,-0.5271 0.5519,-0.5271 0.5519,-1.47588 v -0.61392 l -1.02939,0.0434 q -1.22784,0.0434 -1.77354,0.38447 -0.5395,0.33487 -0.5395,1.048 0,0.55811 0.33486,0.84956 0.34107,0.29146 0.94878,0.29146 z"
         style="font-size:12.69999981px;stroke-width:0.26458332"
         id="path2224" />
      <path
         inkscape:connector-curvature="0"
         d="m 260.12325,126.4006 v 0.65112 l -1.25884,0.14883 q 0.17363,0.21704 0.31006,0.57051 0.13642,0.34726 0.13642,0.78755 0,0.99838 -0.68212,1.5937 -0.68213,0.59531 -1.87276,0.59531 -0.30386,0 -0.57051,-0.0496 -0.65732,0.34727 -0.65732,0.87437 0,0.27905 0.22944,0.41547 0.22945,0.13023 0.78755,0.13023 h 1.20303 q 1.10381,0 1.69292,0.46509 0.59531,0.46508 0.59531,1.35185 0,1.12862 -0.90537,1.71773 -0.90537,0.59531 -2.6417,0.59531 -1.33325,0 -2.05879,-0.49609 -0.71933,-0.4961 -0.71933,-1.40147 0,-0.62012 0.39687,-1.0728 0.39688,-0.45269 1.11621,-0.61392 -0.26045,-0.11782 -0.44028,-0.36587 -0.17363,-0.24804 -0.17363,-0.57671 0,-0.37207 0.19843,-0.65112 0.19844,-0.27905 0.62632,-0.5395 -0.5271,-0.21704 -0.86196,-0.73794 -0.32866,-0.5209 -0.32866,-1.19063 0,-1.11621 0.66972,-1.71772 0.66973,-0.60772 1.89756,-0.60772 0.5333,0 0.96118,0.12403 z m -5.41983,7.9375 q 0,0.5519 0.46509,0.83716 0.46509,0.28525 1.33325,0.28525 1.29605,0 1.91617,-0.39067 0.62631,-0.38448 0.62631,-1.048 0,-0.55191 -0.34106,-0.76895 -0.34106,-0.21084 -1.28364,-0.21084 h -1.23404 q -0.70073,0 -1.0914,0.33487 -0.39068,0.33486 -0.39068,0.96118 z m 0.55811,-5.76089 q 0,0.71313 0.40308,1.079 0.40307,0.36587 1.12241,0.36587 1.50688,0 1.50688,-1.46347 0,-1.53169 -1.52549,-1.53169 -0.72553,0 -1.11621,0.39067 -0.39067,0.39067 -0.39067,1.15962 z"
         style="font-size:12.69999981px;stroke-width:0.26458332"
         id="path2226" />
    </g>
  </g>
</svg>
